<svg xmlns="http://www.w3.org/2000/svg" xmlns:svg="http://www.w3.org/2000/svg" xmlns:xlink="http://www.w3.org/1999/xlink" id="svg2" width="199.999" height="199.999" version="1.0"><defs id="defs4"><linearGradient id="linearGradient2657"><stop id="stop2659" offset="0" style="stop-color:#fff;stop-opacity:1"/><stop id="stop2661" offset="1" style="stop-color:#fff;stop-opacity:0"/></linearGradient><linearGradient id="linearGradient3271"><stop style="stop-color:#000;stop-opacity:1" id="stop3273" offset="0"/><stop id="stop3279" offset=".86" style="stop-color:#000;stop-opacity:.498039"/><stop style="stop-color:#000;stop-opacity:0" id="stop3275" offset="1"/></linearGradient><linearGradient id="linearGradient7203" x1="-66.487" x2="-65.777" y1="57.046" y2="58.065" gradientUnits="userSpaceOnUse" xlink:href="#linearGradient7197"/><linearGradient id="linearGradient7197"><stop id="stop7199" offset="0" style="stop-color:#c00;stop-opacity:1"/><stop id="stop7201" offset="1" style="stop-color:#c00;stop-opacity:0"/></linearGradient><linearGradient id="linearGradient7249" x1="-65.233" x2="-65.842" y1="58.346" y2="57.819" gradientUnits="userSpaceOnUse" xlink:href="#linearGradient7215"/><linearGradient id="linearGradient7215"><stop style="stop-color:#fff;stop-opacity:1" id="stop7217" offset="0"/><stop style="stop-color:#c00;stop-opacity:0" id="stop7219" offset="1"/></linearGradient><linearGradient id="SteelBar" x1="0" x2="1" y1="0" y2="0" gradientUnits="objectBoundingBox" spreadMethod="pad"><stop offset="0" style="stop-color:black;stop-opacity:1" id="stop1370"/><stop offset=".7" style="stop-color:white;stop-opacity:1" id="stop1372"/><stop offset="1" style="stop-color:black;stop-opacity:1" id="stop1374"/></linearGradient><radialGradient id="radialGradient5445" cx="218.797" cy="321.169" r="49.922" fx="218.797" fy="321.169" gradientTransform="matrix(1.24711,-7.82671e-6,8.13347e-6,1.29598,-222.866,-366.229)" gradientUnits="userSpaceOnUse" xlink:href="#SteelBar"/><radialGradient id="radialGradient3277" cx="416.921" cy="355.35" r="50.971" fx="416.921" fy="355.35" gradientUnits="userSpaceOnUse" xlink:href="#linearGradient3271"/><radialGradient id="radialGradient4160" cx="416.921" cy="355.35" r="51.221" fx="416.921" fy="355.35" gradientUnits="userSpaceOnUse" xlink:href="#linearGradient3271"/><radialGradient id="radialGradient1630" cx="416.921" cy="355.35" r="51.221" fx="416.921" fy="355.35" gradientUnits="userSpaceOnUse" xlink:href="#linearGradient3271"/><radialGradient id="radialGradient1632" cx="416.921" cy="355.35" r="50.971" fx="416.921" fy="355.35" gradientUnits="userSpaceOnUse" xlink:href="#linearGradient3271"/><linearGradient id="linearGradient1634" x1="-66.487" x2="-65.777" y1="57.046" y2="58.065" gradientUnits="userSpaceOnUse" xlink:href="#linearGradient7197"/><linearGradient id="linearGradient1636" x1="-65.233" x2="-65.842" y1="58.346" y2="57.819" gradientUnits="userSpaceOnUse" xlink:href="#linearGradient7215"/><radialGradient id="radialGradient1638" cx="218.797" cy="321.169" r="49.922" fx="218.797" fy="321.169" gradientTransform="matrix(1.24711,-7.82671e-6,8.13347e-6,1.29598,-222.866,-366.229)" gradientUnits="userSpaceOnUse" xlink:href="#SteelBar"/><radialGradient id="radialGradient2085" cx="416.921" cy="355.35" r="51.221" fx="416.921" fy="355.35" gradientUnits="userSpaceOnUse" xlink:href="#linearGradient3271"/><radialGradient id="radialGradient2087" cx="416.921" cy="355.35" r="50.971" fx="416.921" fy="355.35" gradientUnits="userSpaceOnUse" xlink:href="#linearGradient3271"/><linearGradient id="linearGradient2089" x1="-66.487" x2="-65.777" y1="57.046" y2="58.065" gradientUnits="userSpaceOnUse" xlink:href="#linearGradient7197"/><linearGradient id="linearGradient2091" x1="-65.233" x2="-65.842" y1="58.346" y2="57.819" gradientUnits="userSpaceOnUse" xlink:href="#linearGradient7215"/><radialGradient id="radialGradient2093" cx="218.797" cy="321.169" r="49.922" fx="218.797" fy="321.169" gradientTransform="matrix(1.24711,-7.82671e-6,8.13347e-6,1.29598,-222.866,-366.229)" gradientUnits="userSpaceOnUse" xlink:href="#SteelBar"/><linearGradient id="linearGradient2644" x1="-66.487" x2="-65.777" y1="57.046" y2="58.065" gradientUnits="userSpaceOnUse" xlink:href="#linearGradient7197"/><linearGradient id="linearGradient2646" x1="-65.233" x2="-65.842" y1="58.346" y2="57.819" gradientUnits="userSpaceOnUse" xlink:href="#linearGradient7215"/><linearGradient id="linearGradient2649" x1="-65.233" x2="-65.842" y1="58.346" y2="57.819" gradientTransform="matrix(1.317967,2.920736,-2.920736,1.317967,409.0761,270.6482)" gradientUnits="userSpaceOnUse" xlink:href="#linearGradient7215"/><linearGradient id="linearGradient2655" x1="-65.899" x2="-66.112" y1="58.004" y2="57.821" gradientTransform="matrix(0.777889,1.723873,-1.723873,0.777889,304.3673,222.9463)" gradientUnits="userSpaceOnUse" xlink:href="#linearGradient2657"/><linearGradient id="linearGradient2681" x1="-65.303" x2="-65.895" y1="59.091" y2="57.841" gradientUnits="userSpaceOnUse" xlink:href="#linearGradient2657"/></defs><metadata id="metadata7"/><g id="layer1" transform="translate(-56.248663,-56.249869)"><path style="opacity:.75;fill:url(#radialGradient2085);fill-opacity:1;fill-rule:evenodd;stroke:url(#radialGradient2087);stroke-width:.5;stroke-linecap:round;stroke-linejoin:round;marker:none;stroke-miterlimit:.1;stroke-dasharray:none;stroke-dashoffset:0;stroke-opacity:1;visibility:visible;display:inline;overflow:visible" id="path2396" d="M 467.89161,355.34964 A 50.970741,50.970741 0 1 1 365.95013,355.34964 A 50.970741,50.970741 0 1 1 467.89161,355.34964 z" transform="matrix(1.952329,0,0,1.952329,-657.7183,-537.5098)"/><path style="fill:#fff;fill-opacity:1;fill-rule:evenodd;stroke:none;stroke-width:.5;stroke-linecap:round;stroke-linejoin:round;marker:none;stroke-miterlimit:.1;stroke-dasharray:none;stroke-dashoffset:0;stroke-opacity:1;visibility:visible;display:inline;overflow:visible" id="path2330" d="M 464.42403,355.24188 A 47.70153,47.70153 0 1 1 369.02097,355.24188 A 47.70153,47.70153 0 1 1 464.42403,355.24188 z" transform="matrix(1.93365,0,0,1.93365,-652.7508,-533.0121)"/><g style="fill:#000;fill-opacity:.12292361" id="g1451" transform="matrix(1.463299,-1.264023,4.98874,5.775232,158.3537,148.713)"><path style="fill-opacity:.12292361;fill-rule:evenodd;stroke:#282d30;stroke-width:1;stroke-linecap:square;stroke-linejoin:miter;stroke-miterlimit:4;stroke-dasharray:none;stroke-opacity:.11372549" id="path1453" d="M -9.54016,-1.42109e-14 L 31.4293,1.68991"/></g><path style="fill:none;fill-opacity:1;fill-rule:evenodd;stroke:#000;stroke-width:3.86730003;stroke-linecap:square;stroke-linejoin:miter;marker:none;stroke-miterlimit:0;stroke-dasharray:none;stroke-dashoffset:0;stroke-opacity:.10588235;visibility:visible;display:inline;overflow:visible" id="path2328" d="M 126.42708,134.67473 L 161.46482,161.18314"/><path id="path2683" style="fill:#000;fill-opacity:.10631229;fill-rule:evenodd;stroke:none;stroke-width:.24396294;stroke-linecap:square;stroke-linejoin:miter;marker:none;stroke-miterlimit:0;stroke-dashoffset:0;stroke-opacity:1;visibility:visible;display:inline;overflow:visible" d="M 150.31813,146.83615 L 152.44872,151.77775 C 153.69107,151.47278 155.01463,152.08537 155.56168,153.29252 C 156.12743,154.54109 155.66724,155.99507 154.53808,156.70508 L 183.7432,222.41077 L 153.78953,157.09313 C 152.36731,157.3051 151.09338,156.88099 150.52324,155.62315 C 149.96847,154.3989 150.40002,152.97736 151.48138,152.25308 L 149.16677,147.35782 L 148.9735,147.45182 C 148.65049,147.59821 148.27227,147.45534 148.12548,147.13145 L 141.65601,134.038 C 141.45944,133.60377 141.64952,133.09605 142.0826,132.89978 L 144.09679,131.98707 C 144.52987,131.79079 145.03701,131.98241 145.23384,132.41673 L 150.81432,145.91282 C 150.96119,146.23689 150.81917,146.61558 150.49616,146.76197 C 150.43866,146.78686 150.37562,146.8117 150.31813,146.83615"/><g id="g2429" transform="matrix(1.923057,0.202121,-0.202121,1.923057,67.80123,47.69509)"><rect id="rect2431" width="1.485" height="3.431" x="49.262" y="9.94" style="fill:#000;fill-opacity:1;fill-rule:evenodd;stroke:none;stroke-width:1px;stroke-linecap:butt;stroke-linejoin:miter;stroke-opacity:1"/><rect style="fill:#000;fill-opacity:1;fill-rule:evenodd;stroke:none;stroke-width:1px;stroke-linecap:butt;stroke-linejoin:miter;stroke-opacity:1" id="rect2433" width="1.485" height="3.431" x="49.255" y="86.529"/></g><g id="g2435" transform="matrix(1.891396,0.402027,-0.402027,1.891396,79.3697,39.28107)"><rect style="fill:#000;fill-opacity:1;fill-rule:evenodd;stroke:none;stroke-width:1px;stroke-linecap:butt;stroke-linejoin:miter;stroke-opacity:1" id="rect2437" width="1.485" height="3.431" x="49.262" y="9.94"/><rect id="rect2439" width="1.485" height="3.431" x="49.255" y="86.529" style="fill:#000;fill-opacity:1;fill-rule:evenodd;stroke:none;stroke-width:1px;stroke-linecap:butt;stroke-linejoin:miter;stroke-opacity:1"/></g><g id="g2441" transform="matrix(1.839011,0.597529,-0.597529,1.839011,91.75434,32.12244)"><rect id="rect2443" width="1.485" height="3.431" x="49.262" y="9.94" style="fill:#000;fill-opacity:1;fill-rule:evenodd;stroke:none;stroke-width:1px;stroke-linecap:butt;stroke-linejoin:miter;stroke-opacity:1"/><rect style="fill:#000;fill-opacity:1;fill-rule:evenodd;stroke:none;stroke-width:1px;stroke-linecap:butt;stroke-linejoin:miter;stroke-opacity:1" id="rect2445" width="1.485" height="3.431" x="49.255" y="86.529"/></g><g id="g2447" transform="matrix(1.766478,0.786485,-0.786485,1.766478,104.8192,26.29732)"><rect style="fill:#000;fill-opacity:1;fill-rule:evenodd;stroke:none;stroke-width:1px;stroke-linecap:butt;stroke-linejoin:miter;stroke-opacity:1" id="rect2449" width="1.485" height="3.431" x="49.262" y="9.94"/><rect id="rect2451" width="1.485" height="3.431" x="49.255" y="86.529" style="fill:#000;fill-opacity:1;fill-rule:evenodd;stroke:none;stroke-width:1px;stroke-linecap:butt;stroke-linejoin:miter;stroke-opacity:1"/></g><g id="g2459" transform="matrix(1.564358,1.136569,-1.136569,1.564358,132.4122,18.88874)"><rect style="fill:#000;fill-opacity:1;fill-rule:evenodd;stroke:none;stroke-width:1px;stroke-linecap:butt;stroke-linejoin:miter;stroke-opacity:1" id="rect2461" width="1.485" height="3.431" x="49.262" y="9.94"/><rect id="rect2463" width="1.485" height="3.431" x="49.255" y="86.529" style="fill:#000;fill-opacity:1;fill-rule:evenodd;stroke:none;stroke-width:1px;stroke-linecap:butt;stroke-linejoin:miter;stroke-opacity:1"/></g><g id="g2465" transform="matrix(1.436984,1.293861,-1.293861,1.436984,146.6377,17.3861)"><rect id="rect2467" width="1.485" height="3.431" x="49.262" y="9.94" style="fill:#000;fill-opacity:1;fill-rule:evenodd;stroke:none;stroke-width:1px;stroke-linecap:butt;stroke-linejoin:miter;stroke-opacity:1"/><rect style="fill:#000;fill-opacity:1;fill-rule:evenodd;stroke:none;stroke-width:1px;stroke-linecap:butt;stroke-linejoin:miter;stroke-opacity:1" id="rect2469" width="1.485" height="3.431" x="49.255" y="86.529"/></g><g id="g2471" transform="matrix(1.293867,1.436978,-1.436978,1.293867,160.9425,17.37875)"><rect style="fill:#000;fill-opacity:1;fill-rule:evenodd;stroke:none;stroke-width:1px;stroke-linecap:butt;stroke-linejoin:miter;stroke-opacity:1" id="rect2473" width="1.485" height="3.431" x="49.262" y="9.94"/><rect id="rect2475" width="1.485" height="3.431" x="49.255" y="86.529" style="fill:#000;fill-opacity:1;fill-rule:evenodd;stroke:none;stroke-width:1px;stroke-linecap:butt;stroke-linejoin:miter;stroke-opacity:1"/></g><g id="g2477" transform="matrix(1.136574,1.564352,-1.564352,1.136574,175.1697,18.86669)"><rect id="rect2479" width="1.485" height="3.431" x="49.262" y="9.94" style="fill:#000;fill-opacity:1;fill-rule:evenodd;stroke:none;stroke-width:1px;stroke-linecap:butt;stroke-linejoin:miter;stroke-opacity:1"/><rect style="fill:#000;fill-opacity:1;fill-rule:evenodd;stroke:none;stroke-width:1px;stroke-linecap:butt;stroke-linejoin:miter;stroke-opacity:1" id="rect2481" width="1.485" height="3.431" x="49.255" y="86.529"/></g><g id="g2489" transform="matrix(0.786491,1.766474,-1.766474,0.786491,202.7702,26.24705)"><rect id="rect2491" width="1.485" height="3.431" x="49.262" y="9.94" style="fill:#000;fill-opacity:1;fill-rule:evenodd;stroke:none;stroke-width:1px;stroke-linecap:butt;stroke-linejoin:miter;stroke-opacity:1"/><rect style="fill:#000;fill-opacity:1;fill-rule:evenodd;stroke:none;stroke-width:1px;stroke-linecap:butt;stroke-linejoin:miter;stroke-opacity:1" id="rect2493" width="1.485" height="3.431" x="49.255" y="86.529"/></g><g id="g2495" transform="matrix(0.597535,1.839008,-1.839008,0.597535,215.8411,32.05863)"><rect style="fill:#000;fill-opacity:1;fill-rule:evenodd;stroke:none;stroke-width:1px;stroke-linecap:butt;stroke-linejoin:miter;stroke-opacity:1" id="rect2497" width="1.485" height="3.431" x="49.262" y="9.94"/><rect id="rect2499" width="1.485" height="3.431" x="49.255" y="86.529" style="fill:#000;fill-opacity:1;fill-rule:evenodd;stroke:none;stroke-width:1px;stroke-linecap:butt;stroke-linejoin:miter;stroke-opacity:1"/></g><g id="g2501" transform="matrix(0.402033,1.891392,-1.891392,0.402033,228.2331,39.20453)"><rect id="rect2503" width="1.485" height="3.431" x="49.262" y="9.94" style="fill:#000;fill-opacity:1;fill-rule:evenodd;stroke:none;stroke-width:1px;stroke-linecap:butt;stroke-linejoin:miter;stroke-opacity:1"/><rect style="fill:#000;fill-opacity:1;fill-rule:evenodd;stroke:none;stroke-width:1px;stroke-linecap:butt;stroke-linejoin:miter;stroke-opacity:1" id="rect2505" width="1.485" height="3.431" x="49.255" y="86.529"/></g><g id="g2507" transform="matrix(0.202126,1.923056,-1.923056,0.202126,239.8101,47.60667)"><rect style="fill:#000;fill-opacity:1;fill-rule:evenodd;stroke:none;stroke-width:1px;stroke-linecap:butt;stroke-linejoin:miter;stroke-opacity:1" id="rect2509" width="1.485" height="3.431" x="49.262" y="9.94"/><rect id="rect2511" width="1.485" height="3.431" x="49.255" y="86.529" style="fill:#000;fill-opacity:1;fill-rule:evenodd;stroke:none;stroke-width:1px;stroke-linecap:butt;stroke-linejoin:miter;stroke-opacity:1"/></g><g id="g2519" transform="matrix(-0.202117,1.923056,-1.923056,-0.202117,260.0233,67.79846)"><rect style="fill:#000;fill-opacity:1;fill-rule:evenodd;stroke:none;stroke-width:1px;stroke-linecap:butt;stroke-linejoin:miter;stroke-opacity:1" id="rect2521" width="1.485" height="3.431" x="49.262" y="9.94"/><rect id="rect2523" width="1.485" height="3.431" x="49.255" y="86.529" style="fill:#000;fill-opacity:1;fill-rule:evenodd;stroke:none;stroke-width:1px;stroke-linecap:butt;stroke-linejoin:miter;stroke-opacity:1"/></g><g id="g2525" transform="matrix(-0.402023,1.891394,-1.891394,-0.402023,268.4366,79.36693)"><rect id="rect2527" width="1.485" height="3.431" x="49.262" y="9.94" style="fill:#000;fill-opacity:1;fill-rule:evenodd;stroke:none;stroke-width:1px;stroke-linecap:butt;stroke-linejoin:miter;stroke-opacity:1"/><rect style="fill:#000;fill-opacity:1;fill-rule:evenodd;stroke:none;stroke-width:1px;stroke-linecap:butt;stroke-linejoin:miter;stroke-opacity:1" id="rect2529" width="1.485" height="3.431" x="49.255" y="86.529"/></g><g id="g2531" transform="matrix(-0.597525,1.839009,-1.839009,-0.597525,275.595,91.75138)"><rect style="fill:#000;fill-opacity:1;fill-rule:evenodd;stroke:none;stroke-width:1px;stroke-linecap:butt;stroke-linejoin:miter;stroke-opacity:1" id="rect2533" width="1.485" height="3.431" x="49.262" y="9.94"/><rect id="rect2535" width="1.485" height="3.431" x="49.255" y="86.529" style="fill:#000;fill-opacity:1;fill-rule:evenodd;stroke:none;stroke-width:1px;stroke-linecap:butt;stroke-linejoin:miter;stroke-opacity:1"/></g><g id="g2537" transform="matrix(-0.786481,1.766476,-1.766476,-0.786481,281.421,104.8165)"><rect id="rect2539" width="1.485" height="3.431" x="49.262" y="9.94" style="fill:#000;fill-opacity:1;fill-rule:evenodd;stroke:none;stroke-width:1px;stroke-linecap:butt;stroke-linejoin:miter;stroke-opacity:1"/><rect style="fill:#000;fill-opacity:1;fill-rule:evenodd;stroke:none;stroke-width:1px;stroke-linecap:butt;stroke-linejoin:miter;stroke-opacity:1" id="rect2541" width="1.485" height="3.431" x="49.255" y="86.529"/></g><g id="g2549" transform="matrix(-1.136565,1.564356,-1.564356,-1.136565,288.8289,132.4093)"><rect id="rect2551" width="1.485" height="3.431" x="49.262" y="9.94" style="fill:#000;fill-opacity:1;fill-rule:evenodd;stroke:none;stroke-width:1px;stroke-linecap:butt;stroke-linejoin:miter;stroke-opacity:1"/><rect style="fill:#000;fill-opacity:1;fill-rule:evenodd;stroke:none;stroke-width:1px;stroke-linecap:butt;stroke-linejoin:miter;stroke-opacity:1" id="rect2553" width="1.485" height="3.431" x="49.255" y="86.529"/></g><g id="g2555" transform="matrix(-1.293857,1.436982,-1.436982,-1.293857,290.3313,146.6349)"><rect style="fill:#000;fill-opacity:1;fill-rule:evenodd;stroke:none;stroke-width:1px;stroke-linecap:butt;stroke-linejoin:miter;stroke-opacity:1" id="rect2557" width="1.485" height="3.431" x="49.262" y="9.94"/><rect id="rect2559" width="1.485" height="3.431" x="49.255" y="86.529" style="fill:#000;fill-opacity:1;fill-rule:evenodd;stroke:none;stroke-width:1px;stroke-linecap:butt;stroke-linejoin:miter;stroke-opacity:1"/></g><g id="g2561" transform="matrix(-1.436975,1.293865,-1.293865,-1.436975,290.339,160.9395)"><rect id="rect2563" width="1.485" height="3.431" x="49.262" y="9.94" style="fill:#000;fill-opacity:1;fill-rule:evenodd;stroke:none;stroke-width:1px;stroke-linecap:butt;stroke-linejoin:miter;stroke-opacity:1"/><rect style="fill:#000;fill-opacity:1;fill-rule:evenodd;stroke:none;stroke-width:1px;stroke-linecap:butt;stroke-linejoin:miter;stroke-opacity:1" id="rect2565" width="1.485" height="3.431" x="49.255" y="86.529"/></g><g id="g2567" transform="matrix(-1.564348,1.136572,-1.136572,-1.564348,288.8521,175.1665)"><rect style="fill:#000;fill-opacity:1;fill-rule:evenodd;stroke:none;stroke-width:1px;stroke-linecap:butt;stroke-linejoin:miter;stroke-opacity:1" id="rect2569" width="1.485" height="3.431" x="49.262" y="9.94"/><rect id="rect2571" width="1.485" height="3.431" x="49.255" y="86.529" style="fill:#000;fill-opacity:1;fill-rule:evenodd;stroke:none;stroke-width:1px;stroke-linecap:butt;stroke-linejoin:miter;stroke-opacity:1"/></g><g id="g2579" transform="matrix(-1.76647,0.786489,-0.786489,-1.76647,281.4713,202.7671)"><rect style="fill:#000;fill-opacity:1;fill-rule:evenodd;stroke:none;stroke-width:1px;stroke-linecap:butt;stroke-linejoin:miter;stroke-opacity:1" id="rect2581" width="1.485" height="3.431" x="49.262" y="9.94"/><rect id="rect2583" width="1.485" height="3.431" x="49.255" y="86.529" style="fill:#000;fill-opacity:1;fill-rule:evenodd;stroke:none;stroke-width:1px;stroke-linecap:butt;stroke-linejoin:miter;stroke-opacity:1"/></g><g id="g2585" transform="matrix(-1.839004,0.597535,-0.597535,-1.839004,275.6588,215.838)"><rect id="rect2587" width="1.485" height="3.431" x="49.262" y="9.94" style="fill:#000;fill-opacity:1;fill-rule:evenodd;stroke:none;stroke-width:1px;stroke-linecap:butt;stroke-linejoin:miter;stroke-opacity:1"/><rect style="fill:#000;fill-opacity:1;fill-rule:evenodd;stroke:none;stroke-width:1px;stroke-linecap:butt;stroke-linejoin:miter;stroke-opacity:1" id="rect2589" width="1.485" height="3.431" x="49.255" y="86.529"/></g><g id="g2591" transform="matrix(-1.891388,0.402033,-0.402033,-1.891388,268.5139,228.2299)"><rect style="fill:#000;fill-opacity:1;fill-rule:evenodd;stroke:none;stroke-width:1px;stroke-linecap:butt;stroke-linejoin:miter;stroke-opacity:1" id="rect2593" width="1.485" height="3.431" x="49.262" y="9.94"/><rect id="rect2595" width="1.485" height="3.431" x="49.255" y="86.529" style="fill:#000;fill-opacity:1;fill-rule:evenodd;stroke:none;stroke-width:1px;stroke-linecap:butt;stroke-linejoin:miter;stroke-opacity:1"/></g><g id="g2597" transform="matrix(-1.923052,0.202126,-0.202126,-1.923052,260.1122,239.8069)"><rect id="rect2599" width="1.485" height="3.431" x="49.262" y="9.94" style="fill:#000;fill-opacity:1;fill-rule:evenodd;stroke:none;stroke-width:1px;stroke-linecap:butt;stroke-linejoin:miter;stroke-opacity:1"/><rect style="fill:#000;fill-opacity:1;fill-rule:evenodd;stroke:none;stroke-width:1px;stroke-linecap:butt;stroke-linejoin:miter;stroke-opacity:1" id="rect2601" width="1.485" height="3.431" x="49.255" y="86.529"/></g><g id="g2605" transform="matrix(1.93365,0,0,1.93365,57.17565,57.27227)"><rect style="fill:#000;fill-opacity:1;fill-rule:evenodd;stroke:none;stroke-width:1px;stroke-linecap:butt;stroke-linejoin:miter;stroke-opacity:1" id="rect7297" width="3.285" height="11.657" x="48.357" y="9.94"/><rect id="rect2603" width="3.285" height="11.657" x="48.357" y="78.303" style="fill:#000;fill-opacity:1;fill-rule:evenodd;stroke:none;stroke-width:1px;stroke-linecap:butt;stroke-linejoin:miter;stroke-opacity:1"/></g><g id="g2621" transform="matrix(3.903885e-7,1.93365,-1.93365,3.903885e-7,250.443,57.17566)"><rect id="rect2623" width="3.285" height="11.657" x="48.357" y="9.94" style="fill:#000;fill-opacity:1;fill-rule:evenodd;stroke:none;stroke-width:1px;stroke-linecap:butt;stroke-linejoin:miter;stroke-opacity:1"/><rect style="fill:#000;fill-opacity:1;fill-rule:evenodd;stroke:none;stroke-width:1px;stroke-linecap:butt;stroke-linejoin:miter;stroke-opacity:1" id="rect2625" width="3.285" height="11.657" x="48.357" y="78.303"/></g><g id="g3292" transform="matrix(1.463299,-1.264023,4.98874,5.775232,158.6667,147.7739)" style="fill:#000;fill-opacity:1"><path id="path4959" d="M -9.54016,-1.42109e-14 L 31.4293,1.68991" style="fill:#000;fill-opacity:1;fill-rule:evenodd;stroke:#282d30;stroke-width:1;stroke-linecap:square;stroke-linejoin:miter;stroke-miterlimit:4;stroke-dasharray:none;stroke-opacity:1"/></g><path id="path3729" d="M 126.53142,133.83997 L 161.56916,160.34838" style="fill:none;fill-opacity:1;fill-rule:evenodd;stroke:#000;stroke-width:3.86730003;stroke-linecap:square;stroke-linejoin:miter;marker:none;stroke-miterlimit:0;stroke-dasharray:none;stroke-dashoffset:0;stroke-opacity:1;visibility:visible;display:inline;overflow:visible"/><path d="M 150.90839,146.54102 L 153.03898,151.48262 C 154.28133,151.17765 155.60489,151.79024 156.15194,152.99739 C 156.71769,154.24596 156.2575,155.69994 155.12834,156.40995 L 184.33346,222.11564 L 154.37979,156.798 C 152.95757,157.00997 151.68364,156.58586 151.1135,155.32802 C 150.55873,154.10377 150.99028,152.68223 152.07164,151.95795 L 149.75703,147.06269 L 149.56376,147.15669 C 149.24075,147.30308 148.86253,147.16021 148.71574,146.83632 L 142.24627,133.74287 C 142.0497,133.30864 142.23978,132.80092 142.67286,132.60465 L 144.68705,131.69194 C 145.12013,131.49566 145.62727,131.68728 145.8241,132.1216 L 151.40458,145.61769 C 151.55145,145.94176 151.40943,146.32045 151.08642,146.46684 C 151.02892,146.49173 150.96588,146.51657 150.90839,146.54102" style="fill:#ef2929;fill-opacity:1;fill-rule:evenodd;stroke:#c00;stroke-width:.24396294;stroke-linecap:square;stroke-linejoin:miter;marker:none;stroke-miterlimit:0;stroke-dashoffset:0;stroke-opacity:1;visibility:visible;display:inline;overflow:visible" id="path5441"/><path style="fill:url(#linearGradient2644);fill-opacity:1;fill-rule:evenodd;stroke:none;stroke-width:.5;stroke-linecap:round;stroke-linejoin:round;marker:none;stroke-miterlimit:.1;stroke-dasharray:none;stroke-dashoffset:0;stroke-opacity:1;visibility:visible;display:inline;overflow:visible" id="path5449" d="M -65.284001,57.772465 A 0.64265752,0.64081556 0 1 1 -65.284011,57.768989 L -65.926659,57.772465 z" transform="matrix(1.68664,3.73775,-3.73775,1.68664,480.8146,303.1221)"/><path id="path7241" d="M 155.75461,153.23444 C 156.31725,154.4813 155.97122,155.95504 154.72436,156.51768 C 153.4775,157.08032 151.896,156.64195 151.24301,155.2868 C 150.64837,154.05472 151.94871,150.88233 152.19146,151.9329" style="fill:url(#linearGradient2649);fill-opacity:1;fill-rule:evenodd;stroke:none;stroke-width:.5;stroke-linecap:round;stroke-linejoin:round;marker:none;stroke-miterlimit:.1;stroke-dashoffset:0;stroke-opacity:1;visibility:visible;display:inline;overflow:visible"/><g id="g1707" transform="matrix(1.93365,0,0,1.93365,57.17526,57.1752)"><path id="path4460" d="M 48.7031,0.330524 C 21.8745,1.01098 0.328125,22.9951 0.328125,49.9868 C 0.328125,77.4069 22.5643,99.6743 49.9844,99.6743 C 77.4045,99.6743 99.6719,77.4069 99.6719,49.9868 C 99.6719,22.5667 77.4045,0.330534 49.9844,0.330524 C 49.5559,0.330524 49.129,0.319724 48.7031,0.330524 z M 49.1719,7.79927 C 49.4436,7.7941 49.7114,7.79927 49.9844,7.79927 C 73.2769,7.79926 92.2031,26.6943 92.2031,49.9868 C 92.2031,73.2793 73.2769,92.2055 49.9844,92.2055 C 26.6919,92.2055 7.79688,73.2793 7.79688,49.9868 C 7.79689,26.9672 26.256,8.23517 49.1719,7.79927 z" style="opacity:1;fill:url(#radialGradient2093);fill-opacity:1;fill-rule:evenodd;stroke:#d2d2d2;stroke-width:.5;stroke-linecap:round;stroke-linejoin:round;marker:none;stroke-miterlimit:.1;stroke-dasharray:none;stroke-dashoffset:0;stroke-opacity:1;visibility:visible;display:inline;overflow:visible"/></g><rect style="fill:#000;fill-opacity:1;fill-rule:evenodd;stroke:none;stroke-width:1px;stroke-linecap:butt;stroke-linejoin:miter;stroke-opacity:1" id="rect2611" width="4.563" height="16.193" x="-56.325" y="-288.165" transform="matrix(-0.861645,0.507512,-0.507512,-0.861645,0,0)"/><rect id="rect2613" width="4.659" height="16.533" x="-57.288" y="-149.476" style="fill:#000;fill-opacity:1;fill-rule:evenodd;stroke:none;stroke-width:1px;stroke-linecap:butt;stroke-linejoin:miter;stroke-opacity:1" transform="matrix(-0.861645,0.507512,-0.507512,-0.861645,0,0)"/><rect id="rect2624" width="4.563" height="16.193" x="207.708" y="-24.417" style="fill:#000;fill-opacity:1;fill-rule:evenodd;stroke:none;stroke-width:1px;stroke-linecap:butt;stroke-linejoin:miter;stroke-opacity:1" transform="matrix(0.859514,0.511112,-0.511112,0.859514,0,0)"/><rect style="fill:#000;fill-opacity:1;fill-rule:evenodd;stroke:none;stroke-width:1px;stroke-linecap:butt;stroke-linejoin:miter;stroke-opacity:1" id="rect2626" width="4.659" height="16.533" x="209.34" y="114.498" transform="matrix(0.859514,0.511112,-0.511112,0.859514,0,0)"/><rect id="rect2630" width="4.563" height="16.193" x="208.646" y="-131.382" style="fill:#000;fill-opacity:1;fill-rule:evenodd;stroke:none;stroke-width:1px;stroke-linecap:butt;stroke-linejoin:miter;stroke-opacity:1" transform="matrix(0.509231,0.86063,-0.86063,0.509231,0,0)"/><rect style="fill:#000;fill-opacity:1;fill-rule:evenodd;stroke:none;stroke-width:1px;stroke-linecap:butt;stroke-linejoin:miter;stroke-opacity:1" id="rect2632" width="4.659" height="16.533" x="207.822" y="6.906" transform="matrix(0.509231,0.86063,-0.86063,0.509231,0,0)"/><rect id="rect2636" width="4.563" height="16.193" x="55.999" y="-287.325" style="fill:#000;fill-opacity:1;fill-rule:evenodd;stroke:none;stroke-width:1px;stroke-linecap:butt;stroke-linejoin:miter;stroke-opacity:1" transform="matrix(-0.493355,0.869828,-0.869828,-0.493355,0,0)"/><rect style="fill:#000;fill-opacity:1;fill-rule:evenodd;stroke:none;stroke-width:1px;stroke-linecap:butt;stroke-linejoin:miter;stroke-opacity:1" id="rect2638" width="4.659" height="16.533" x="54.811" y="-148.384" transform="matrix(-0.493355,0.869828,-0.869828,-0.493355,0,0)"/><path id="path2663" d="M -65.284001,57.772465 A 0.64265752,0.64081556 0 1 1 -65.285147,57.734221" transform="matrix(0.731987,1.622152,-1.622152,0.731987,295.6543,218.8004)" style="fill:#000;fill-opacity:1;fill-rule:evenodd;stroke:none;stroke-width:.5;stroke-linecap:round;stroke-linejoin:round;marker:none;stroke-miterlimit:.1;stroke-dasharray:none;stroke-dashoffset:0;stroke-opacity:1;visibility:visible;display:inline;overflow:visible"/><path style="fill:url(#linearGradient2681);fill-opacity:1;fill-rule:evenodd;stroke:none;stroke-width:.5;stroke-linecap:round;stroke-linejoin:round;marker:none;stroke-miterlimit:.1;stroke-dasharray:none;stroke-dashoffset:0;stroke-opacity:1;visibility:visible;display:inline;overflow:visible" id="path2673" d="M -65.284001,57.772465 A 0.64265752,0.64081556 0 1 1 -65.285147,57.734221" transform="matrix(0.684254,1.516372,-1.516372,0.684254,286.3963,214.5843)"/></g></svg>