<svg xmlns="http://www.w3.org/2000/svg" xmlns:svg="http://www.w3.org/2000/svg" id="svg2" width="800" height="600" x="0" y="0" enable-background="new 0 0 800 600" version="1.1" viewBox="0 0 800 600" xml:space="preserve"><metadata id="metadata23"/><g id="layer1"><path id="path2472" fill="#4D4D4D" stroke="#000" stroke-width="1.833" d="M395.128,328.216l9.512-22.29l-0.088-32.169l16.746-6.413l-49.226-33.283l-0.835-28.762l-18.66-1.151l1.18,40.605l19.948,16.354 l-2.966,14.479l-23.219,16.761l-5.16,26.396l29.878,8.445l1.778,2.911l7.813,213.015l16.303-0.614L395.128,328.216z"/><path id="path2474" fill="#4D4D4D" stroke="#000" stroke-width="1.833" d="M458.761,543.794l-7.197-225.687l-1.165-10.973l-15.252-0.403l-2.345-51.578l-49.005-25.669l-1.46-21.124l98.079-4.543 l-1.261,44.063l-11.425,14.725l29.145,41.486l0.418,14.38l-21.896,4.023l1.104,219.939L458.761,543.794z"/><path id="path2470" fill="red" stroke="#FFF" stroke-width="1.833" d="M510.539,336.083c0,0-52.69,24.391-192.064,6.427c-1.938-8.41-1.123-37.28-1.123-37.28l12.57-4.458c0,0-1.541-173.41,0.74-188.04 c-2.071-18.734,34.562-63.227,75.188-63.991c54.141-1.015,81.22,49.819,80.268,52.7c6.21,16.22,12.679,196.505,12.679,196.505 l10.856,2.972l0.885,35.16L510.539,336.083z" enable-background="new" opacity=".79"/><radialGradient id="path2991_1_" cx="341.952" cy="119.943" r="91.144" gradientTransform="matrix(0.0431 1.2342 2.2046 -0.077 127.3611 -352.7568)" gradientUnits="userSpaceOnUse"><stop offset="0" style="stop-color:#fff" id="stop9"/><stop offset="1" style="stop-color:#fff;stop-opacity:0" id="stop11"/></radialGradient><path id="path2991" fill="url(#path2991_1_)" d="M509.336,335.416c0,0-51.707,24.181-188.506,6.316c-1.904-8.344-1.114-36.984-1.114-36.984l12.336-4.42 c0,0-1.566-172.035,0.668-186.545c-2.039-18.586,33.903-62.719,73.774-63.46c53.139-0.99,79.732,49.449,78.797,52.307 c6.101,16.093,12.506,194.955,12.506,194.955l10.655,2.951l0.88,34.883L509.336,335.416z"/><path id="path2480" fill="#CCC" fill-opacity=".622" stroke="#CCC" stroke-linecap="round" stroke-linejoin="round" stroke-width="1.833" d="M328.806,303.746c0,0-3.463,0.477-5.044,1.033l-5.036,1.775c0,0,94.322,13.87,191.158-4.184l-1.522-0.513 c-1.743-0.588-5.685-1.552-6.896-1.966l-172.662,3.854H328.806z" enable-background="new" opacity=".595"/><radialGradient id="path3796_1_" cx="678.492" cy="157.277" r="96.047" gradientTransform="matrix(-1.3948 1.3422 1.1419 1.2976 1160.7717 -945.002)" gradientUnits="userSpaceOnUse"><stop offset="0" style="stop-color:red" id="stop16"/><stop offset="1" style="stop-color:red;stop-opacity:0" id="stop18"/></radialGradient></g></svg>