<svg xmlns="http://www.w3.org/2000/svg" xmlns:svg="http://www.w3.org/2000/svg" id="svg4326" width="744.094" height="1052.362" version="1.1"><metadata id="metadata4331"/><g id="layer1"><path id="path135" d="m 554.62324,670.73428 c 0,7.32735 -9.35433,13.24648 -20.94095,13.24648 l -351.85054,0 c -11.58661,0 -20.90551,-5.91913 -20.90551,-13.24648 l 0,-367.22609 c 0,-7.32736 9.3189,-13.22445 20.90551,-13.22445 l 137.19692,0 c 1.09842,12.9604 17.96457,23.30232 38.72836,23.30232 20.76378,0 37.62993,-10.34192 38.72836,-23.30232 l 137.1969,0 c 11.58662,0 20.90552,5.89709 20.90552,13.24646 l 0,367.20408 0.0354,0 z" style="fill:#333;stroke:none"/><path id="path137" d="m 554.62347,670.7345 c 0,7.32738 -9.35434,13.24647 -20.94096,13.24647 l -351.85076,0 c -11.58661,0 -20.90551,-5.91909 -20.90551,-13.24647 l 0,-367.2263 c 0,-7.32736 9.3189,-13.22446 20.90551,-13.22446 l 137.197,0 c 1.09843,12.96041 17.96459,23.30234 38.72839,23.30234 20.7638,0 37.62996,-10.34193 38.72838,-23.30234 l 137.19699,0 c 11.58662,0 20.90553,5.8971 20.90553,13.24646 l 0,367.2043 0.0354,0 z" style="fill:none;stroke:#000;stroke-width:3.8267715;stroke-linejoin:miter"/><path id="path139" d="m 178.53648,500.03571 0,148.37259 c 0,9.19101 12.6496,16.62742 28.20472,16.62742 l 302.03155,0 c 15.55512,0 28.20473,-7.43641 28.20473,-16.62742 l 0,-296.74517 c 0,-9.19104 -12.64961,-16.62742 -28.20473,-16.62742 l -302.03155,0 c -15.55512,0 -28.20472,7.43638 -28.20472,16.62742 l 0,148.37258 z" style="fill:#ccc;stroke:none"/><path id="path141" d="m 178.53648,500.26014 0,147.67516 c 0,9.14782 12.6496,16.54925 28.20472,16.54925 l 302.03149,0 c 15.55512,0 28.20473,-7.40143 28.20473,-16.54925 l 0,-295.35031 c 0,-9.14784 -12.64961,-16.54926 -28.20473,-16.54926 l -302.03149,0 c -15.55512,0 -28.20472,7.40142 -28.20472,16.54926 l 0,147.67515 z" style="fill:none;stroke:#000;stroke-width:2.55118108;stroke-linecap:round;stroke-linejoin:miter"/><path id="path145" d="m 611.59946,332.55539 -7.72441,0 -33.66142,-10.91338 -15.62598,0 0,48.22441 15.62598,0 33.66142,-10.87796 7.72441,0 0,-26.43307 0,0 z" style="fill:#999;fill-opacity:1;stroke:#000;stroke-width:2.55118108;stroke-linejoin:miter"/><path id="path147" d="m 611.59946,390.66563 -7.72441,0 -33.66142,-10.91339 -15.62598,0 0,48.22441 15.62598,0 33.66142,-10.87795 7.72441,0 0,-26.43307 0,0 z" style="fill:#999;fill-opacity:1;stroke:#000;stroke-width:2.55118108;stroke-linejoin:miter"/><path id="path149" d="m 611.59946,448.77586 -7.72441,0 -33.66142,-10.91338 -15.62598,0 0,48.25984 15.62598,0 33.66142,-10.87795 7.72441,0 0,-26.46851 0,0 z" style="fill:#999;fill-opacity:1;stroke:#000;stroke-width:2.55118108;stroke-linejoin:miter"/><path id="path151" d="m 611.59946,506.8861 -7.72441,0 -33.66142,-10.87795 -15.62598,0 0,48.2244 15.62598,0 33.66142,-10.87795 7.72441,0 0,-26.4685 0,0 z" style="fill:#999;fill-opacity:1;stroke:#000;stroke-width:2.55118108;stroke-linejoin:miter"/><path id="path153" d="m 611.59946,564.99633 -7.72441,0 -33.66142,-10.87795 -15.62598,0 0,48.22441 15.62598,0 33.66142,-10.87795 7.72441,0 0,-26.46851 0,0 z" style="fill:#999;fill-opacity:1;stroke:#000;stroke-width:2.55118108;stroke-linejoin:miter"/><path id="path155" d="m 611.59946,623.10657 -7.72441,0 -33.66142,-10.87796 -15.62598,0 0,48.25985 15.62598,0 33.66142,-10.91339 7.72441,0 0,-26.4685 0,0 z" style="fill:#999;fill-opacity:1;stroke:#000;stroke-width:2.55118108;stroke-linejoin:miter"/><path id="path167" d="m 160.89081,321.64201 -15.62598,0 -33.62599,10.91338 -7.72441,0 0,26.43307 7.72441,0 33.62599,10.87796 15.62598,0 0,-48.22441 0,0 z" style="fill:#999;fill-opacity:1;stroke:#000;stroke-width:2.55118108;stroke-linejoin:miter"/><path id="path169" d="m 160.89081,379.75224 -15.62598,0 -33.62599,10.91339 -7.72441,0 0,26.43307 7.72441,0 33.62599,10.91338 15.62598,0 0,-48.25984 0,0 z" style="fill:#999;fill-opacity:1;stroke:#000;stroke-width:2.55118108;stroke-linejoin:miter"/><path id="path171" d="m 160.89081,437.89791 -15.62598,0 -33.62599,10.87795 -7.72441,0 0,26.46851 7.72441,0 33.62599,10.87795 15.62598,0 0,-48.22441 0,0 z" style="fill:#999;fill-opacity:1;stroke:#000;stroke-width:2.55118108;stroke-linejoin:miter"/><path id="path173" d="m 160.89081,496.00815 -15.62598,0 -33.62599,10.87795 -7.72441,0 0,26.4685 7.72441,0 33.62599,10.87795 15.62598,0 0,-48.2244 0,0 z" style="fill:#999;fill-opacity:1;stroke:#000;stroke-width:2.55118108;stroke-linejoin:miter"/><path id="path175" d="m 160.89081,554.11838 -15.62598,0 -33.62599,10.87795 -7.72441,0 0,26.46851 7.72441,0 33.62599,10.87795 15.62598,0 0,-48.22441 0,0 z" style="fill:#999;fill-opacity:1;stroke:#000;stroke-width:2.55118108;stroke-linejoin:miter"/><path id="path177" d="m 160.89081,612.22861 -15.62598,0 -33.62599,10.91339 -7.72441,0 0,26.4685 7.72441,0 33.62599,10.87796 15.62598,0 0,-48.25985 0,0 z" style="fill:#999;fill-opacity:1;stroke:#000;stroke-width:2.55118108;stroke-linejoin:miter"/></g></svg>