<svg xmlns="http://www.w3.org/2000/svg" xmlns:svg="http://www.w3.org/2000/svg" xmlns:xlink="http://www.w3.org/1999/xlink" id="svg2" width="744.094" height="1052.362" version="1.1"><defs id="defs4"><linearGradient id="linearGradient3847"><stop id="stop3849" offset="0" style="stop-color:#00f;stop-opacity:1"/><stop id="stop3851" offset="1" style="stop-color:#000;stop-opacity:0"/></linearGradient><linearGradient id="linearGradient3823"><stop id="stop3825" offset="0" style="stop-color:#999;stop-opacity:1"/><stop id="stop3827" offset="1" style="stop-color:#999;stop-opacity:0"/></linearGradient><filter id="filter3833"><feGaussianBlur id="feGaussianBlur3835" stdDeviation=".276"/></filter><linearGradient id="linearGradient3845" x1="90.174" x2="249" y1="312.197" y2="312.197" gradientUnits="userSpaceOnUse" xlink:href="#linearGradient3847"/><linearGradient id="linearGradient3845-1" x1="249.357" x2="89.357" y1="311.291" y2="311.291" gradientTransform="translate(0.6428571,146.07143)" gradientUnits="userSpaceOnUse" xlink:href="#linearGradient3847"/><linearGradient id="linearGradient3847-7"><stop id="stop3849-4" offset="0" style="stop-color:#f60;stop-opacity:1"/><stop id="stop3851-0" offset="1" style="stop-color:#000;stop-opacity:0"/></linearGradient><filter id="filter3833-9" color-interpolation-filters="sRGB"><feGaussianBlur id="feGaussianBlur3835-4" stdDeviation=".276"/></filter></defs><metadata id="metadata7"/><g id="layer1"><path style="fill:none;stroke:#000;stroke-width:1px;stroke-linecap:butt;stroke-linejoin:miter;stroke-opacity:1" id="path2989" d="m 90,282.36218 c 90,0 90,0 90,0 0,-40 0,-20 0,-20 70,50 70,50 70,50 -70,50 -70,50 -70,50 0,-30 0,-20 0,-20 l -90,0 z"/><path style="fill:url(#linearGradient3845);fill-opacity:1;filter:url(#filter3833)" id="path3003" d="m 180.83699,351.12168 0,-9.46428 -45,0 -45,0 0,-29.28572 0,-29.28571 45,0 45,0 0,-9.63906 0,-9.63907 33.75,24.14197 c 18.5625,13.27808 33.75,24.26831 33.75,24.42273 0,0.27583 -66.91802,48.21343 -67.30306,48.21343 -0.10832,0 -0.19694,-4.25893 -0.19694,-9.46429 z"/><flowRoot id="flowRoot2993" transform="matrix(1.4233477,0,0,1.2253781,-19.281804,-79.196472)" xml:space="preserve" style="font-size:36.34550095px;font-style:normal;font-weight:400;line-height:125%;letter-spacing:0;word-spacing:0;fill:#000;fill-opacity:1;stroke:none;font-family:Sans"><flowRegion id="flowRegion2995"><rect id="rect2997" width="83.968" height="41.572" x="90.714" y="296.065" style="font-size:36.34550095px"/></flowRegion><flowPara id="flowPara2999" style="font-size:36.34550095px">float</flowPara></flowRoot><path style="fill:none;stroke:#000;stroke-width:1px;stroke-linecap:butt;stroke-linejoin:miter;stroke-opacity:1" id="path2989-8" d="m 90.642857,428.43361 c 90.000003,0 90.000003,0 90.000003,0 0,-40 0,-20 0,-20 70,50 70,50 70,50 -70,50 -70,50 -70,50 0,-30 0,-20 0,-20 l -90.000003,0 z"/><path style="fill:url(#linearGradient3845-1);fill-opacity:1;filter:url(#filter3833-9)" id="path3003-8" d="m 181.47985,497.19311 0,-9.46428 -45,0 -45.000003,0 0,-29.28572 0,-29.28571 45.000003,0 45,0 0,-9.63906 0,-9.63907 33.75,24.14197 c 18.5625,13.27808 33.75,24.26831 33.75,24.42273 0,0.27583 -66.91802,48.21343 -67.30306,48.21343 -0.10832,0 -0.19694,-4.25893 -0.19694,-9.46429 z"/><flowRoot id="flowRoot2993-3" transform="matrix(1.4233477,0,0,1.2253781,-37.455033,69.165733)" xml:space="preserve" style="font-size:36.34550095px;font-style:normal;font-weight:400;line-height:125%;letter-spacing:0;word-spacing:0;fill:#000;fill-opacity:1;stroke:none;font-family:Sans"><flowRegion id="flowRegion2995-3"><rect id="rect2997-6" width="83.968" height="41.572" x="90.714" y="296.065" style="font-size:36.34550095px"/></flowRegion><flowPara id="flowPara2999-3" style="font-size:36.34550095px">float</flowPara></flowRoot></g></svg>