<svg xmlns="http://www.w3.org/2000/svg" xmlns:svg="http://www.w3.org/2000/svg" id="svg3073" width="744.094" height="1052.362" version="1.1"><metadata id="metadata3078"/><g id="layer1"><path id="_47855704" d="m 129.61537,413.96016 50.76926,-10e-4 c 2.54213,0 4.61537,3.18332 4.61537,7.08662 l 0,28.3465 c 0,3.90329 -2.07326,7.08805 -4.61537,7.08805 l -50.76926,-10e-4 c -2.54213,0 -4.61537,-3.18332 -4.61537,-7.08662 l 0,-28.34649 c 0,-3.9033 2.07324,-7.08522 4.61537,-7.08522 z" class="fil0 str0" style="fill:#4d4948;fill-rule:evenodd;stroke:#4d4948;stroke-width:.21789548"/><line id="_90009808-7" x1="147.554" x2="147.554" y1="413.916" y2="406.829" class="fil1 str1" style="fill:none;stroke:#838281;stroke-width:4.99996185;stroke-linecap:round"/><line id="_90009808-4" x1="162.572" x2="162.572" y1="414.03" y2="406.944" class="fil1 str1" style="fill:none;stroke:#838281;stroke-width:4.99996185;stroke-linecap:round"/><line id="_90009808-0" x1="177.571" x2="177.571" y1="413.941" y2="406.855" class="fil1 str1" style="fill:none;stroke:#838281;stroke-width:4.99996185;stroke-linecap:round"/><line id="_90009808-7-4" x1="132.589" x2="132.589" y1="414.005" y2="406.918" class="fil1 str1" style="fill:none;stroke:#838281;stroke-width:4.99996185;stroke-linecap:round"/><line id="_90009808-7-5" x1="146.982" x2="146.982" y1="462.995" y2="455.908" class="fil1 str1" style="fill:none;stroke:#838281;stroke-width:4.99996185;stroke-linecap:round"/><line id="_90009808-4-5" x1="162" x2="162" y1="463.109" y2="456.023" class="fil1 str1" style="fill:none;stroke:#838281;stroke-width:4.99996185;stroke-linecap:round"/><line id="_90009808-0-1" x1="177" x2="177" y1="463.02" y2="455.933" class="fil1 str1" style="fill:none;stroke:#838281;stroke-width:4.99996185;stroke-linecap:round"/><line id="_90009808-7-4-7" x1="132.018" x2="132.018" y1="463.084" y2="455.997" class="fil1 str1" style="fill:none;stroke:#838281;stroke-width:4.99996185;stroke-linecap:round"/></g></svg>